# xmcd CD database file
#
# Track frame offsets:
#	150
#	11783
#	23882
#	37835
#	51958
#	73904
#	86080
#
# Disc length: 1357 seconds
#
# Revision: 0
# Processed by: cddbd v1.5.2PL0 Copyright (c) Steve Scherf et al.
# Submitted via: CDex 1.70beta2
#
DISCID=58054b07
DTITLE=Oliver Armstrong Elington Byas Konitz Braff - L'art du duo cd jazzmagazine
DYEAR=2013
DGENRE=Jazz
TTITLE0=King Oliver, Jelly Roll Morton - King Porter Stomp
TTITLE1=Louis Armstrong, Earl Hines - Weather Bird
TTITLE2=Coleman Hawkins, Freddy Johnson - Lamentation
TTITLE3=Duke Ellington - Plucked Again (Ellington)
TTITLE4=Don Byas - Slam Stewart - I Got Rhythm
TTITLE5=Lee Konitz, Billy Bauer - Duet for Saxophone and Guitar
TTITLE6=Ruby Braff, Ellis Larkins - Blues for Ellis
EXTD=YEAR: 2013
EXTT0=
EXTT1=
EXTT2=
EXTT3=
EXTT4=
EXTT5=
EXTT6=
PLAYORDER=
